<?xml version="1.0" encoding="UTF-8"?>
<svg xmlns="http://www.w3.org/2000/svg" viewBox="0 0 977 1024" width="977" height="1024">
<path d="M749.76 216.47C754.12 225.32 755.64 236.91 757.62 246.56C763.19 273.68 763.1 301.16 761.97 328.71C760.36 328.15 758.75 327.58 757.13 327.02C751.94 323.79 747.15 319.94 741.8 316.91C722.82 306.16 701.9 299.48 680.23 297.17C659.41 294.95 637.79 297.04 617.85 303.38C597.96 309.7 579.62 319.65 563.65 333.13C550.5 344.22 539.65 357.71 530.86 372.45C522.04 387.22 516.08 403.51 512.84 420.36C509.35 438.55 508.49 458.93 511.91 477.21C524.7 545.65 580.31 597.94 649.67 605.1C670.93 607.29 693.16 604.72 713.4 597.83C718.76 596.01 723.83 593.46 729.1 591.4C730.52 597.48 729.73 604.14 730.46 610.4C731.72 621.2 733.61 631.66 736.19 642.24C746.45 684.31 772.43 722.41 805 750.42C819.38 762.78 835.89 772.51 853.45 779.59C864.26 783.94 877.52 786.44 886.79 793.79C897.26 802.09 898.42 817.02 891.86 828.17C891.64 827.71 891.42 827.25 891.19 826.8C888.5 827.44 891.35 827.68 888.91 827.85C886.33 828.03 882 821.78 879.3 821C873.23 819.25 867.07 818.61 860.75 820.12C859.33 820.46 858.27 821.61 857.07 822.34C855.96 823.02 854.45 823.1 853.42 823.79C850.97 825.43 848.93 828.6 846.9 830.72C846.27 831.37 844.76 831.87 844.39 832.76C842.83 836.48 845.04 836.45 840.49 839.02C838.38 834.8 836.1 828.77 832.86 825.53C823.92 816.56 807.5 812.93 795.61 817.12C792.27 818.29 788.9 820.84 786.36 823.42C785.17 824.63 783.61 827.76 782 828.29C780.46 828.81 778.77 828.07 777.27 827.71C776.88 825.29 777.39 822.83 777.01 820.43C776.78 819.01 775.71 817.95 775.38 816.58C775.05 815.19 775.37 813.75 775.04 812.36C774.61 810.57 771.39 804.9 770.16 803.54C769.49 802.81 768.51 802.66 767.84 801.94C766.47 800.46 765.83 798.67 764.17 797.26C761.67 795.14 759.32 794.42 757.4 791.64C753.37 791.94 751 789.87 747.19 789.08C744.89 788.6 742.33 788.37 740.03 788.02C738.25 787.75 736.92 788.65 735.35 788.7C733.47 788.77 732.47 788.35 730.01 788.56C729.7 788.59 729.39 788.23 729.1 788.33C727.28 788.97 726.99 789.64 724.99 789.36C719.97 792.14 714.94 794.91 709.92 797.69C707.53 795.69 704.98 792.56 702.32 791.12C701.66 790.77 700.68 790.9 699.95 790.62C697.13 789.54 689.29 783.44 687.81 780.94C686.93 779.45 686.7 777.67 685.76 776.2C683.96 773.36 682.62 771.44 682.53 767.9C681.7 767.86 680.86 767.82 680.03 767.78C673.63 756.78 669.38 744.41 663.45 733.11C661.12 728.68 658.22 722.17 653.31 720.47C649.93 728.44 655.36 746.2 657.53 754.63C666.17 788.22 679.74 814.45 705.48 838.19C718.75 850.44 744.29 864.29 742.72 884.9C741.83 883.23 742.44 883.38 741.44 884.32C740.6 890.74 739.74 896.6 734.69 901.24C733.43 902.41 730.88 904.74 729.03 904.5C728.08 904.37 727.58 903.75 726.66 903.5C726.5 900.47 724.51 899.85 723.01 897.24C713.61 880.91 693.24 880.68 678.88 890.52C676.93 876.75 671.3 867.58 657.91 863.06C653.9 861.71 650.45 860.38 646.04 861.07C640.22 861.98 635.09 865.46 629.8 866.97C630.97 859.04 630.76 852.19 627.46 844.89C626.61 843.01 626.23 840.9 624.98 839.15C622.19 835.25 617.72 832.96 614.96 829.08C609.89 828.07 605.71 824.79 600.35 824.24C596.93 823.89 592.82 824.35 589.42 824.78C585.46 825.28 583.2 827.71 579.26 826.8C576.1 823.54 572.55 819.47 569.88 815.67C569.24 814.76 569.04 813.19 568.42 812.42C566.29 809.78 562.22 807.58 562.92 803.51C560.89 802.62 559.15 799.63 557.61 799.88C553.09 794.59 549.8 787.69 546.5 781.57C539.46 768.49 533.16 754.98 525.65 742.15C521.51 735.08 517.33 726.52 510.87 721.33C508 727.27 511.13 736.22 512.62 742.49C515.2 753.36 518.72 764.1 522.46 774.63C524.11 779.26 526.39 783.72 527.61 788.51C529.25 794.96 527.66 802.23 527.29 808.79C526.74 818.74 526.85 828.69 527.22 838.64C528.12 862.89 536.15 885.84 544.94 908.17C551.21 924.09 554.93 945.99 534.38 952.97C531.29 954.02 528.2 954.49 525.02 954.12C524.97 953.83 524.92 953.55 524.87 953.26C523.42 950.04 524.31 946.14 523.91 942.9C523.65 940.83 522.54 938.03 522.01 935.92C520.84 931.26 516.53 928.53 515.44 924.04C512.26 922.98 509.97 919.63 506.73 918.44C501.78 916.61 495.04 914.65 489.87 916.62C488.8 915.59 487.74 914.57 486.67 913.54C489.04 909.76 489.38 903.51 488.33 899.1C488.09 898.09 487.12 897.25 487.02 896.19C486.87 894.73 487.45 893.36 486.47 891.83C484.63 888.9 483.54 887.98 483.02 884.32C480.35 883.23 480.01 881.51 478 879.37C475.71 876.94 471.6 873.54 468.41 872.45C467.09 872 465.82 872.16 464.47 871.82C462.53 871.34 460.73 869.65 458.68 869.46C457.46 869.34 455.56 870.4 454.38 869.63C453.91 869.33 453.87 868.32 453.7 867.89C459.22 863.36 459.91 856.42 460 849.62C460.02 847.55 460.51 845.34 460.17 843.26C459.93 841.83 458.93 840.77 458.54 839.41C456.08 830.88 449.22 824.15 441.02 820.41C439.26 820.25 439.03 820.05 438.28 821.47C436.91 821.48 435.54 821.49 434.17 821.5C433.79 821.9 433.41 822.29 433.04 822.69C428.15 804.6 425.16 785.89 421.93 767.45C420.9 761.58 419.51 749.27 415 745.56C412.91 749.61 412.95 754.73 412.51 759.23C411.4 770.47 412.15 782.67 409.63 793.7C408.62 798.12 405.46 802.36 402.99 806.09C397.04 815.05 389.97 824.93 381.67 831.85C379.59 829.11 375.96 829.77 372.87 829.23C366.54 828.12 360.08 828.45 354.31 831.45C352.25 832.51 350.52 835.01 348.63 836.37C347.28 837.34 345.74 837.74 344.72 839.15C342.37 842.38 340.63 846.19 338.94 849.8C338 851.82 336.81 855.61 336.96 857.81C337.2 861.5 338.4 863.12 336.47 866.7C334.61 863.65 333.76 864.42 330.87 863.06C329.11 862.23 327.41 860.84 325.34 860.3C323.87 859.91 322.45 860.33 320.98 860.31C318.6 860.29 316.07 859.82 313.67 860.15C310.78 860.56 303.2 864.13 300.43 865.54C298.44 866.55 295.92 869.49 294.5 871.11C292.73 873.12 288.6 881.29 288.14 883.87C287.76 886.01 287.77 888.06 287.16 890.26C280.7 888.39 278.72 882.91 271.47 881.31C258.24 878.39 247.72 885.35 239.06 894.19C238.44 894.83 237.49 895.04 236.97 895.76C235.04 898.47 235.26 900.89 232.38 903.16C229.81 901.16 227.24 899.16 224.67 897.17C217.9 891.16 218.08 878.85 221.55 871.21C226.47 860.36 247.61 845.58 257.37 837.41C257.97 838.87 260.17 837.32 261.6 836.39C262.91 835.53 262.91 834.23 263.74 833.21C265.54 830.99 267.74 828.59 269.97 826.44C271.78 824.7 274.22 822.7 275.7 820.77C276.54 819.69 276.86 818.31 277.8 817.22C278.42 816.5 279.76 815.79 280.22 815.1C281.33 813.45 281.87 811.37 283.18 809.69C285.04 807.31 289.05 803.56 288.46 800.48C291.16 793.89 294.95 787.74 297.51 781.01C302.55 767.77 305.71 753.95 308.27 740.05C309.44 733.73 311.64 725.7 309.08 719.61C305.79 721.11 304.31 724.47 302.54 727.58C298.62 734.47 295.11 741.63 291.79 748.82C287.77 757.51 281.02 774.89 275.51 781.83C271.27 787.16 255.87 797.4 249.49 799.9C247.74 799.65 246 799.4 244.25 799.15C243.77 798.62 243.65 797.81 243.12 797.33C239.69 794.25 226.85 790.97 222.36 791.67C219.62 792.1 216.88 793.21 214.16 793.69C213.27 793.84 212.43 793.48 211.55 793.69C208.24 794.48 205.04 796.58 201.79 797.58C201.66 798.11 201.91 798.7 201.73 799.21C201.21 800.68 199.83 800.37 198.9 801.08C196.61 802.85 194.99 805.73 192.66 807.62C192.36 808.84 192.05 810.06 191.75 811.28C188.11 813.18 189.68 815.05 188.98 818.55C188.29 821.99 187.09 820.86 188.5 824.97C183.85 825.99 180.13 823.26 178.96 818.58C175.91 818.49 173.23 815.9 170.12 814.64C164.07 812.19 155.45 812.36 149.46 814.64C145.18 816.27 140.16 818.97 137.13 822.4C136.41 823.22 136.2 824.51 135.56 825.4C134.48 826.92 132.36 827.94 131.66 829.71C130.91 831.59 131.09 834.35 129.2 835.66C127.9 836.56 125.24 836.26 123.72 836.37C122.63 834.22 121.67 830.91 120.04 829.11C116.14 824.77 105.89 819.04 99.98 819.04C93.57 819.04 83.9 826.08 80.81 831.58C78.34 828.03 77.48 825.86 72.97 825.39C65.44 816.01 67.3 799.54 76.36 791.75C84.49 784.77 95.52 782.15 105.35 778.61C113.36 775.72 120.96 772.06 128.81 768.77C137.59 767.7 140.46 761.24 147.92 760.14C149.37 757.02 153.78 753.63 156.94 751.93C157.5 751.62 158.62 751.5 159.06 751.16C160.27 750.21 161.31 748.6 162.5 747.47C164.29 745.77 168.44 743.8 168.14 741.32C173.49 736.09 178.85 730.85 184.2 725.62C191.49 722.45 193.54 711.31 201.34 708.55C201.92 704.67 202.22 703.87 205.44 701.71C205.62 697.69 207.84 694.94 210.92 692.57C211.02 690.17 211.44 689.24 212.79 687.1C212.9 685.8 213.34 686.13 212.05 685.73C223.14 663.92 237.69 628.7 234.96 604.01C230.98 601.87 227.01 599.74 223.03 597.61C222.78 593.41 222.43 588.55 224.16 584.71C231.46 587.62 238.21 591.96 245.52 594.95C256.98 599.65 269.43 602.82 281.69 604.49C330 611.04 382.42 592.8 414.97 556.04C426.82 542.67 436.77 527.29 443.73 510.84C445.8 505.95 447.06 500.81 448.97 495.91C450.74 496.45 449.82 496.38 450.26 495.35C452.98 490.87 452.36 486.59 453.86 481.59C457.28 470.23 458.4 444.61 456.65 432.8C456.12 429.28 455.05 425.76 454.38 422.27C453.4 417.28 452.02 405.48 449.69 401.76C449.12 401.45 448.55 401.14 447.98 400.83C441.93 386.93 436.26 373.48 427.37 361.05C403.98 328.34 368.05 305.54 328.38 298.73C315.13 296.46 301.49 295.99 288.08 296.83C283.08 297.15 278.15 298.39 273.18 298.65C271.28 297.74 269.39 298.17 267.08 298.53C265.37 289.96 268.98 279.65 270.71 271.23C276.73 241.85 289.13 214.18 308.7 191.36C373.24 116.11 487.78 100.26 581.08 113.54C599.3 116.13 616.83 121.2 634.37 126.57C668.45 137.01 700.53 157.34 725.13 182.94C731.85 189.94 737.68 197.31 742.56 205.68C744.54 209.09 747.05 212.05 747.82 215.94C748.46 216.12 749.11 216.3 749.76 216.47ZM704.62 232.49C693.78 233.94 694.96 251.35 706.27 250.54C717.85 249.7 716.63 230.89 704.62 232.49ZM721.79 266.11C718.66 268.14 718.18 269.74 718.55 273.47C723.44 280.16 731.27 276.16 728.34 267.99C726.02 266.19 724.74 265.91 721.79 266.11ZM437.32 409.97C433.2 412.2 422.16 407.24 417.52 405.7C402.49 400.71 386.24 397.87 370.67 394.95C332.58 387.8 293.02 388.65 254.92 394.94C242.26 397.03 229.69 400.65 217.35 404.08C211.61 405.67 205.43 408.95 199.51 407.72C195.46 388.93 207.98 359.56 218.49 344.03C222.06 338.75 225.55 333.51 230.56 329.47C231.94 328.37 238.7 325.57 238.88 325.3C239.2 324.85 238.52 324.24 238.4 323.89C249.91 316.92 264.7 313.22 277.85 311.01C334.75 301.45 393.55 328.64 423.27 377.96C429.2 387.79 434.75 398.72 437.32 409.97ZM741.42 332.07C741.14 334.08 743.28 334.31 744.83 335.69C745.91 336.65 746.46 338.5 747.84 339.12C748.55 339.43 749.31 339.09 750.07 339.4C752.45 340.36 753.28 342.97 755.15 344.35C756.59 345.4 758.8 345.68 759.74 347.51C760.14 348.3 759.99 348.9 760.14 349.71C763.74 350.3 765.4 352.08 766.08 355.65C767.01 356.3 768.12 356.58 769.01 357.22C771.04 358.67 772.14 363.01 774.56 362.49C787.76 376.02 799.99 406.52 802.42 425.04C794.34 425.55 776.88 419.69 767.9 417.87C768.36 417.4 768.82 416.92 769.27 416.45C753.53 405.37 735 400.04 716.31 396.43C682.54 389.89 648.63 388.08 614.39 392.17C604.54 393.35 594.55 395 584.83 397.02C579.14 398.2 567.54 401.83 562.41 401.3C561.08 396.62 562.36 390.49 563.04 385.68C565.28 369.94 577.61 344.05 588.76 332.58C591.97 329.28 593.24 330.46 596.22 329.14C596.85 328.86 597.14 327.96 597.78 327.61C598.31 327.31 598.93 327.6 599.5 327.3C601.2 326.4 602.55 324.79 604.15 323.71C606.12 322.38 608.07 322.41 608.99 320.35C617.94 315.66 628.82 313.21 638.7 311.33C671.49 305.08 714.12 311.75 741.42 332.07ZM463.39 565.88C454 568.66 459.57 582.05 464.28 587.15C478.71 602.76 509.8 600.89 515.01 578.43C516.11 573.68 515.42 561.95 507.28 567C504.26 568.87 504.13 573.16 502.5 576.03C499.35 581.56 493.22 583.67 487.13 583.63C481.49 583.6 476.07 581.54 472.61 576.94C469.37 572.63 469.1 567.46 463.39 565.88ZM745.79 705.28C739.47 705.78 738.66 711.16 739.39 716.34C740.5 724.09 748.51 736.84 758.12 732.14C762.32 730.09 762.21 725.75 761.31 721.82C759.81 715.25 753.65 704.65 745.79 705.28Z" fill="#a563eb" fill-rule="evenodd" stroke="#a563eb" stroke-width="0.25" stroke-linejoin="round"/>
<path d="M750.1 579.33C750.05 590.6 748.71 603.17 751.03 614.05C751.38 615.69 750.86 617.44 751.22 619.05C755.3 637.18 760.28 655.13 768.23 672.21C780.66 698.95 806.36 727.95 830.21 745.26C838.76 751.47 848.97 756.74 858.88 760.46C875.79 766.81 895.26 770.15 906.61 785.86C913.68 795.64 917.12 806.69 915.16 818.69C914.45 823.06 914.44 826.89 912.87 831.16C906.9 847.49 890.73 858.29 874.24 860.76C866.68 861.9 858.18 860.81 850.54 860.82C843.17 860.82 835.04 861.82 827.75 860.73C826.66 860.57 825.87 859.94 824.8 859.78C819.74 859 814.5 859.58 809.45 858.63C798.59 856.6 787.58 854.38 776.78 851.63C767.79 849.35 759.15 845.52 750.36 842.42C746.82 841.18 741.85 837.31 738.23 838.08C739.12 841.31 748.62 847.85 751.42 851.51C756.83 858.6 760.69 867.46 762.06 876.16C764.43 891.17 759.33 908.95 747 918.2C742.1 921.88 737.86 925.95 731.61 927.44C720.23 930.16 709.66 929.1 698.34 926.42C692.73 925.09 687.63 922.83 682.29 920.76C664.54 913.89 646.31 906.41 630.06 896.17C615.43 886.94 601.99 876.35 588.52 865.58C584.18 862.11 580.5 857.68 576.54 853.78C571.93 849.25 566.29 844.74 562.44 839.55C559.15 835.11 550.95 823.87 546.48 821.67C545.52 826.93 546.97 839.58 547.88 845.09C548.23 847.16 547.76 849.33 548.09 851.4C549.67 861.48 552.13 871.59 555.48 881.3C559.88 894.04 566.63 905.62 568.91 919.05C569.45 922.24 569.03 925.83 569.03 929.06C569.05 951.75 557.48 968.83 534.59 973.56C529.69 974.57 525.66 974.5 520.78 973.68C519.33 973.44 517.82 973.77 516.37 973.51C501.1 970.7 490.29 959.18 479.68 948.82C472.04 941.35 465.82 932.74 459.67 924.09C450.33 910.97 441.05 897.77 434.09 883.13C425.46 864.97 419.3 845.6 413.17 826.67C410.63 829.06 408.44 832.18 406.26 834.96C404.68 836.98 402.44 838.47 400.84 840.48C395.48 847.21 388.92 854.75 382.06 860.08C367.76 871.19 353.87 882.44 338.65 892.42C334.28 895.29 329.22 896.92 324.8 899.69C318.79 903.46 312.58 906.49 305.98 909.11C303.07 910.26 300.52 912.29 297.61 913.43C288.62 916.92 279.47 920.75 270.3 923.55C261.67 926.19 249.68 928.98 240.62 927.6C219.47 924.38 201.99 909.28 199.96 887.06C198.66 872.82 203.66 861.56 211.72 850.39C214.67 846.3 222.3 842.59 223.25 837.61C218.92 837.88 215.27 840.22 211.19 841.61C203.76 844.13 196.12 846.71 188.56 848.68C179.34 851.08 169.77 853.32 160.24 854.64C154.46 855.44 148.57 855.47 142.86 856.53C136.95 857.62 130.63 856.1 124.66 856.68C119.83 857.15 114.96 858.12 110.03 857.55C108.43 857.37 107.08 856.77 105.46 856.66C94.28 855.93 87.51 857.54 76.45 853.5C52.75 844.82 44.03 816.07 51.82 793.78C53.03 790.32 54.24 786.69 56.43 783.66C67.59 768.14 86.57 764.7 103.41 758.47C105.75 757.61 107.78 755.96 110.11 755.08C118.58 751.87 126.9 747.16 134.53 742.25C171.86 718.22 206.65 668.01 213.81 624.09C216.25 609.15 215.66 594.22 215.94 578.9C193.23 562.98 173.21 540.88 162.63 515.04C161.66 512.67 159.99 510.45 159.08 507.97C155.6 498.5 152.8 488.47 151.01 478.72C150.19 474.26 150.52 469.7 149.83 465.23C148.28 455.15 148.41 444.27 149.82 434.17C150.16 431.79 149.63 429.32 150.02 426.95C151.96 415.21 154.96 403.68 159.13 392.39C160.48 388.76 162.12 384.5 164.28 381.27C166.13 378.5 169.26 374.43 169.84 371.16C170.45 367.69 169.22 364.47 168.95 361.12C168.09 350.44 166.95 339.8 166.01 329.17C165.61 324.66 166.5 319.98 165.94 315.5C164.82 306.54 165.19 299.73 165.95 290.82C166.43 285.26 166.19 279.82 166.93 274.35C167.25 271.98 166.64 269.5 167.07 267.11C169.13 255.72 170.05 243.94 173.02 232.68C178.79 210.75 185.73 187.85 197.86 168.25C199.88 164.99 201.17 161.3 203.3 158.09C209.24 149.13 215.57 140.48 221.69 131.7C223.41 129.22 226.13 127.62 228.06 125.34C231.7 121.04 235.43 117.04 239.44 112.98C243.55 108.82 247.52 103.77 252.18 100.22C268.88 87.47 284.71 76.72 302.84 65.94C313.79 59.42 326.34 55.4 338.11 50.84C341.06 49.69 343.82 48.1 346.77 46.96C357.26 42.9 368.48 40.69 379.22 37.83C393.39 34.05 407.86 31.66 422.33 29.08C424.4 28.71 426.58 29.25 428.65 28.93C436.51 27.72 444.68 27.11 452.48 25.94C458.99 24.96 465.95 26.27 472.52 25.83C474.98 25.67 477.37 25.04 479.83 24.94C486.36 24.67 492.61 25.43 499 25.82C510.04 26.5 519.27 26.03 530.27 27.89C532.58 28.28 535.03 27.67 537.35 28.03C541.01 28.61 544.7 29.36 548.35 29.91C550.12 30.18 551.97 29.77 553.75 30.08C576.16 34.06 598.91 38.93 620.09 47.6C622.76 48.69 625.77 49.22 628.5 50.26C636.74 53.41 644.7 56.98 652.64 60.85C655.18 62.09 657.96 62.64 660.42 64.12C667.25 68.23 674.37 72 681.04 76.37C690.38 82.5 699.19 89.34 708.29 95.72C710.06 96.97 711.38 98.8 713.04 100.17C728.11 112.57 742.65 129.27 753.72 145.19C756.53 149.23 758.63 153.83 761.38 157.86C769.71 170.03 776.22 184.25 781.23 198.18C782.96 202.98 785.58 207.46 786.85 212.5C789.32 222.29 791.63 232.11 794 241.75C796.02 249.99 796.52 258.76 797.91 267.12C799.06 274.05 798.24 281.09 799.06 288.07C800.17 297.52 800.72 307.68 799.92 317.3C798.94 329.16 798.32 341.08 797.01 352.91C796.61 356.43 794.68 366.36 795.15 369.33C795.78 373.28 802.96 383.38 804.78 388.13C809.91 401.53 813.42 415.01 816.04 428.84C817.29 435.49 817.18 442.88 817.16 449.69C817.08 484.31 806.2 517.71 785.51 545.84C784.37 547.4 782.64 548.47 781.47 550.01C777.14 555.67 767.94 565.89 762.25 570.05C758.19 573.02 753.68 575.81 750.1 579.33ZM378.48 58.36C364.82 60.92 351.31 66.42 338.38 71.45C329.24 75 318.55 78.86 310.8 84.96C305.85 86.21 301.52 89.59 297.14 92.18C285.95 98.79 275.81 106.38 265.94 114.81C217.37 156.3 191.65 212.86 185.86 275.98C184.4 291.9 184.49 307.73 185.11 323.69C185.38 330.79 184.9 339.79 187.64 346.33C203.34 329.49 222.45 315.87 243.86 307.31C250.18 304.79 256.73 302.7 263.34 301.07C266.6 300.26 270.16 300.02 273.18 298.65C278.15 298.39 283.08 297.15 288.08 296.83C301.49 295.99 315.13 296.46 328.38 298.73C368.05 305.54 403.98 328.34 427.37 361.05C436.26 373.48 441.93 386.93 447.98 400.83C449.92 412.85 454 423.79 455.05 436.45C456.33 451.89 455.36 467.87 452.24 483.02C451.35 487.36 449.81 491.57 448.97 495.91C447.06 500.81 445.8 505.95 443.73 510.84C436.77 527.29 426.82 542.67 414.97 556.04C382.42 592.8 330 611.04 281.69 604.49C269.43 602.82 256.98 599.65 245.52 594.95C238.21 591.96 231.46 587.62 224.16 584.71C222.43 588.55 222.78 593.41 223.03 597.61C227.01 599.74 230.98 601.87 234.96 604.01C237.69 628.7 223.14 663.92 212.05 685.73C206.99 693.1 202.99 701.22 197.55 708.38C193.67 713.49 186.67 720.14 184.2 725.62C178.85 730.85 173.49 736.09 168.14 741.32C160.52 746.52 153.61 752.92 146.01 758.24C140.56 762.07 133.96 764.74 128.81 768.77C120.96 772.06 113.36 775.72 105.35 778.61C95.52 782.15 84.49 784.77 76.36 791.75C67.3 799.54 65.44 816.01 72.97 825.39C74.73 829.38 78.74 832.72 82.89 833.85C92.75 839.93 112.72 836.98 124.18 837.14C126.01 837.1 127.83 837.07 129.66 837.03C146.91 836.53 168.19 835.21 184.35 828.58C186.51 828.09 188.67 827.6 190.83 827.11C203.36 823.59 215.26 818.27 227.02 812.76C233.14 809.9 240.71 806.69 245.69 802.08C246.96 801.35 248.22 800.62 249.49 799.9C255.87 797.4 271.27 787.16 275.51 781.83C281.02 774.89 287.77 757.51 291.79 748.82C295.11 741.63 298.62 734.47 302.54 727.58C304.31 724.47 305.79 721.11 309.08 719.61C311.64 725.7 309.44 733.73 308.27 740.05C305.71 753.95 302.55 767.77 297.51 781.01C294.95 787.74 291.16 793.89 288.46 800.48C283.69 805.17 278.9 813.59 274.43 819.17C269.2 825.7 262.81 831.15 257.37 837.41C247.61 845.58 226.47 860.36 221.55 871.21C218.08 878.85 217.9 891.16 224.67 897.17C226.74 901.64 231.66 905.06 236.47 905.92C247.74 910.23 261.13 905.06 271.99 901.62C276.96 900.04 282.44 898.44 286.96 895.9C287.65 895.57 288.34 895.25 289.03 894.92C294.7 893.72 300.43 890.3 305.61 887.72C314.88 883.11 329.43 876.16 336.81 869.22C337.59 868.64 338.37 868.06 339.15 867.49C349.48 863.1 363.52 850.3 371.61 842.3C374.64 839.29 378.96 836.07 380.83 832.23C381.11 832.11 381.39 831.98 381.67 831.85C389.97 824.93 397.04 815.05 402.99 806.09C405.46 802.36 408.62 798.12 409.63 793.7C412.15 782.67 411.4 770.47 412.51 759.23C412.95 754.73 412.91 749.61 415 745.56C419.51 749.27 420.9 761.58 421.93 767.45C425.16 785.89 428.15 804.6 433.04 822.69C435.02 832.13 438.69 841.48 441.91 850.56C444.07 856.63 446.18 863.85 449.94 869.12C450.33 869.62 450.71 870.12 451.09 870.62C452.13 877.78 459.32 887.82 463.27 894.07C473.68 910.54 485.13 926.7 499.13 940.36C507.51 948.53 512.88 953.6 525.02 954.12C528.2 954.49 531.29 954.02 534.38 952.97C554.93 945.99 551.21 924.09 544.94 908.17C536.15 885.84 528.12 862.89 527.22 838.64C526.85 828.69 526.74 818.74 527.29 808.79C527.66 802.23 529.25 794.96 527.61 788.51C526.39 783.72 524.11 779.26 522.46 774.63C518.72 764.1 515.2 753.36 512.62 742.49C511.13 736.22 508 727.27 510.87 721.33C517.33 726.52 521.51 735.08 525.65 742.15C533.16 754.98 539.46 768.49 546.5 781.57C549.8 787.69 553.09 794.59 557.61 799.88C560.73 806.77 575.68 826.33 581.65 830.91C608.85 861.48 643.38 882.44 680.49 898.71C690.69 903.18 701.52 907.32 712.66 908.53C716.86 908.99 721.86 909.41 725.73 907.52C735.76 906.3 743.34 894.41 742.72 884.9C744.29 864.29 718.75 850.44 705.48 838.19C679.74 814.45 666.17 788.22 657.53 754.63C655.36 746.2 649.93 728.44 653.31 720.47C658.22 722.17 661.12 728.68 663.45 733.11C669.38 744.41 673.63 756.78 680.03 767.78C681.66 772.64 684.08 779.11 687.51 783C691.13 787.1 706.25 797.64 711.27 799.31C715.29 803.52 721.74 806.55 726.75 809.5C741.52 818.2 757.95 824.66 774.3 829.7C777.38 830.63 780.46 831.56 783.54 832.49C801.18 837.38 819.1 839.19 837.3 840.65C838.97 840.75 840.65 840.85 842.32 840.96C842.52 840.69 842.73 840.41 842.93 840.14C847.46 841.3 852.28 840.94 856.93 840.89C867.31 840.79 880.29 841.39 887.89 832.97C889.21 831.37 890.53 829.77 891.86 828.17C898.42 817.02 897.26 802.09 886.79 793.79C877.52 786.44 864.26 783.94 853.45 779.59C835.89 772.51 819.38 762.78 805 750.42C772.43 722.41 746.45 684.31 736.19 642.24C733.61 631.66 731.72 621.2 730.46 610.4C729.73 604.14 730.52 597.48 729.1 591.4C723.83 593.46 718.76 596.01 713.4 597.83C693.16 604.72 670.93 607.29 649.67 605.1C580.31 597.94 524.7 545.65 511.91 477.21C508.49 458.93 509.35 438.55 512.84 420.36C516.08 403.51 522.04 387.22 530.86 372.45C539.65 357.71 550.5 344.22 563.65 333.13C579.62 319.65 597.96 309.7 617.85 303.38C637.79 297.04 659.41 294.95 680.23 297.17C701.9 299.48 722.82 306.16 741.8 316.91C747.15 319.94 751.94 323.79 757.13 327.02C763.92 333.11 770.71 339.21 777.49 345.3C780.4 339.86 779.72 328.24 780.08 321.86C781.31 299.88 780.28 277.89 776.92 256.12C770.85 216.87 755.63 178.4 730.83 147.13C691.25 97.22 632.74 66.93 571.16 53.81C554.43 50.24 536.69 46.89 519.54 46.41C510.12 43.78 498.73 44.82 488.96 44.73C464.4 44.5 440.18 46.6 415.91 50.1C406.23 51.5 386.52 53.87 378.48 58.36ZM238.4 323.89C231.6 326.17 225.45 331.01 219.63 335.12C198.51 350.03 183.1 370.47 172.34 393.78C168.61 401.85 162.42 416.94 163.9 425.55C219.95 413.26 277.41 403.64 335.22 408.6C357.92 410.55 380.8 412.61 403.11 417.39C411.93 419.28 420.73 421.19 429.58 422.92C433.51 423.68 436.74 424.96 440.64 424.13C439.53 419.41 438.42 414.69 437.32 409.97C434.75 398.72 429.2 387.79 423.27 377.96C393.55 328.64 334.75 301.45 277.85 311.01C264.7 313.22 249.91 316.92 238.4 323.89ZM608.99 320.35C600.29 322.37 591.49 328.51 584.15 333.52C562.94 347.99 546.34 367.56 535.53 390.83C531.22 400.1 524.38 414.96 525.48 425.14C538.96 422.61 552.33 419.31 565.81 416.69C599.94 410.04 635.86 406.38 670.66 407.49C692.97 408.2 715.15 410.07 737.27 413.03C747.43 414.39 757.68 417.17 767.9 417.87C776.88 419.69 794.34 425.55 802.42 425.04C799.99 406.52 787.76 376.02 774.56 362.49C769.97 353.87 750.41 335.89 741.42 332.07C714.12 311.75 671.49 305.08 638.7 311.33C628.82 313.21 617.94 315.66 608.99 320.35ZM434.17 437.64C427.05 434.44 418.11 433.37 410.45 431.84C395.08 428.76 379.6 426.1 364.04 424.21C316.06 418.39 268.19 419.54 220.48 427.13C205.41 429.53 183.61 432.46 169.64 437.82C166.33 451.51 168.99 470.05 172.28 483.65C184.89 535.81 230.5 576.71 283.56 584.11C345.57 592.76 407.84 554.63 428.05 495.25C434.19 477.2 437.49 456.61 434.17 437.64ZM796.16 437.82C791.28 435.18 784.76 434.77 779.33 433.69C768.07 431.44 756.88 429.09 745.54 427.21C695.22 418.91 644.42 418.35 593.91 425.2C579.26 427.19 564.59 429.78 550.13 432.86C544.15 434.14 536.16 434.66 530.96 437.74C528.4 456.11 531.2 476 536.94 493.53C555.53 550.27 612.86 589.09 672.49 585.15C731.29 581.26 781.22 537.47 793.88 480.16C796.86 466.66 798.58 451.55 796.16 437.82ZM463.39 565.88C469.1 567.46 469.37 572.63 472.61 576.94C476.07 581.54 481.49 583.6 487.13 583.63C493.22 583.67 499.35 581.56 502.5 576.03C504.13 573.16 504.26 568.87 507.28 567C515.42 561.95 516.11 573.68 515.01 578.43C509.8 600.89 478.71 602.76 464.28 587.15C459.57 582.05 454 568.66 463.39 565.88Z" fill="#382453" fill-rule="evenodd" stroke="#382453" stroke-width="0.25" stroke-linejoin="round"/>
<path d="M519.54 46.41C519.09 46.94 518.63 47.46 518.18 47.99C617.23 57.3 719.03 117.14 749.76 216.47C749.11 216.3 748.46 216.12 747.82 215.94C747.05 212.05 744.54 209.09 742.56 205.68C737.68 197.31 731.85 189.94 725.13 182.94C700.53 157.34 668.45 137.01 634.37 126.57C616.83 121.2 599.3 116.13 581.08 113.54C487.78 100.26 373.24 116.11 308.7 191.36C289.13 214.18 276.73 241.85 270.71 271.23C268.98 279.65 265.37 289.96 267.08 298.53C269.39 298.17 271.28 297.74 273.18 298.65C270.16 300.02 266.6 300.26 263.34 301.07C256.73 302.7 250.18 304.79 243.86 307.31C222.45 315.87 203.34 329.49 187.64 346.33C184.9 339.79 185.38 330.79 185.11 323.69C184.49 307.73 184.4 291.9 185.86 275.98C191.65 212.86 217.37 156.3 265.94 114.81C275.81 106.38 285.95 98.79 297.14 92.18C301.52 89.59 305.85 86.21 310.8 84.96C310.68 85.71 310.57 86.45 310.45 87.2C306.34 88.32 303.31 91.54 300.1 94.24C293.68 99.65 287.51 105.31 281.79 111.46C278.83 114.64 274.76 118.05 274.38 122.27C280.66 116.15 288.24 110.97 295.35 105.83C321.12 87.23 348.26 72.1 377.92 60.72C379.47 59.4 378.61 59.91 378.48 58.36C386.52 53.87 406.23 51.5 415.91 50.1C440.18 46.6 464.4 44.5 488.96 44.73C498.73 44.82 510.12 43.78 519.54 46.41ZM301.05 133.71C286.67 135.93 279.02 152.55 285.56 165.26C289.55 173.01 298.04 176.6 306.34 176.13C309.44 175.95 312.93 174.43 315.52 172.77C334.62 160.49 323.45 130.26 301.05 133.71ZM248.82 194.87C233.21 199.35 239.37 224.16 256.12 219.62C272.45 215.19 266.21 189.89 248.82 194.87ZM608.99 320.35C608.07 322.41 606.12 322.38 604.15 323.71C602.55 324.79 601.2 326.4 599.5 327.3C598.93 327.6 598.31 327.31 597.78 327.61C597.14 327.96 596.85 328.86 596.22 329.14C593.24 330.46 591.97 329.28 588.76 332.58C577.61 344.05 565.28 369.94 563.04 385.68C562.36 390.49 561.08 396.62 562.41 401.3C567.54 401.83 579.14 398.2 584.83 397.02C594.55 395 604.54 393.35 614.39 392.17C648.63 388.08 682.54 389.89 716.31 396.43C735 400.04 753.53 405.37 769.27 416.45C768.82 416.92 768.36 417.4 767.9 417.87C757.68 417.17 747.43 414.39 737.27 413.03C715.15 410.07 692.97 408.2 670.66 407.49C635.86 406.38 599.94 410.04 565.81 416.69C552.33 419.31 538.96 422.61 525.48 425.14C524.38 414.96 531.22 400.1 535.53 390.83C546.34 367.56 562.94 347.99 584.15 333.52C591.49 328.51 600.29 322.37 608.99 320.35ZM238.4 323.89C238.52 324.24 239.2 324.85 238.88 325.3C238.7 325.57 231.94 328.37 230.56 329.47C225.55 333.51 222.06 338.75 218.49 344.03C207.98 359.56 195.46 388.93 199.51 407.72C205.43 408.95 211.61 405.67 217.35 404.08C229.69 400.65 242.26 397.03 254.92 394.94C293.02 388.65 332.58 387.8 370.67 394.95C386.24 397.87 402.49 400.71 417.52 405.7C422.16 407.24 433.2 412.2 437.32 409.97C438.42 414.69 439.53 419.41 440.64 424.13C436.74 424.96 433.51 423.68 429.58 422.92C420.73 421.19 411.93 419.28 403.11 417.39C380.8 412.61 357.92 410.55 335.22 408.6C277.41 403.64 219.95 413.26 163.9 425.55C162.42 416.94 168.61 401.85 172.34 393.78C183.1 370.47 198.51 350.03 219.63 335.12C225.45 331.01 231.6 326.17 238.4 323.89ZM741.42 332.07C750.41 335.89 769.97 353.87 774.56 362.49C772.14 363.01 771.04 358.67 769.01 357.22C768.12 356.58 767.01 356.3 766.08 355.65C765.4 352.08 763.74 350.3 760.14 349.71C759.99 348.9 760.14 348.3 759.74 347.51C758.8 345.68 756.59 345.4 755.15 344.35C753.28 342.97 752.45 340.36 750.07 339.4C749.31 339.09 748.55 339.43 747.84 339.12C746.46 338.5 745.91 336.65 744.83 335.69C743.28 334.31 741.14 334.08 741.42 332.07ZM448.97 495.91C449.81 491.57 451.35 487.36 452.24 483.02C455.36 467.87 456.33 451.89 455.05 436.45C454 423.79 449.92 412.85 447.98 400.83C448.55 401.14 449.12 401.45 449.69 401.76C452.02 405.48 453.4 417.28 454.38 422.27C455.05 425.76 456.12 429.28 456.65 432.8C458.4 444.61 457.28 470.23 453.86 481.59C452.36 486.59 452.98 490.87 450.26 495.35C449.82 496.38 450.74 496.45 448.97 495.91ZM212.05 685.73C213.34 686.13 212.9 685.8 212.79 687.1C211.44 689.24 211.02 690.17 210.92 692.57C207.84 694.94 205.62 697.69 205.44 701.71C202.22 703.87 201.92 704.67 201.34 708.55C193.54 711.31 191.49 722.45 184.2 725.62C186.67 720.14 193.67 713.49 197.55 708.38C202.99 701.22 206.99 693.1 212.05 685.73ZM745.79 705.28C753.65 704.65 759.81 715.25 761.31 721.82C762.21 725.75 762.32 730.09 758.12 732.14C748.51 736.84 740.5 724.09 739.39 716.34C738.66 711.16 739.47 705.78 745.79 705.28ZM168.14 741.32C168.44 743.8 164.29 745.77 162.5 747.47C161.31 748.6 160.27 750.21 159.06 751.16C158.62 751.5 157.5 751.62 156.94 751.93C153.78 753.63 149.37 757.02 147.92 760.14C140.46 761.24 137.59 767.7 128.81 768.77C133.96 764.74 140.56 762.07 146.01 758.24C153.61 752.92 160.52 746.52 168.14 741.32ZM891.86 828.17C890.53 829.77 889.21 831.37 887.89 832.97C884.45 819.34 864.05 818.77 854.33 825.52C848.67 829.45 847.08 835.54 842.93 840.14C842.73 840.41 842.52 840.69 842.32 840.96C840.65 840.85 838.97 840.75 837.3 840.65C837.01 838.94 837.4 837.08 836.91 835.36C833.19 822.23 816.31 816.46 804.11 817.51C797.33 818.1 781.96 823.68 783.54 832.49C780.46 831.56 777.38 830.63 774.3 829.7C776.01 823.88 775.66 815.25 771.88 810.07C771.43 809.46 770.41 809.03 770.1 808.48C769.96 808.22 770.32 807.48 770.18 807.09C767.2 798.44 751.1 790.77 742.79 789.81C728.22 788.12 722.64 792.24 711.27 799.31C706.25 797.64 691.13 787.1 687.51 783C684.08 779.11 681.66 772.64 680.03 767.78C680.86 767.82 681.7 767.86 682.53 767.9C682.62 771.44 683.96 773.36 685.76 776.2C686.7 777.67 686.93 779.45 687.81 780.94C689.29 783.44 697.13 789.54 699.95 790.62C700.68 790.9 701.66 790.77 702.32 791.12C704.98 792.56 707.53 795.69 709.92 797.69C714.94 794.91 719.97 792.14 724.99 789.36C726.99 789.64 727.28 788.97 729.1 788.33C729.39 788.23 729.7 788.59 730.01 788.56C732.47 788.35 733.47 788.77 735.35 788.7C736.92 788.65 738.25 787.75 740.03 788.02C742.33 788.37 744.89 788.6 747.19 789.08C751 789.87 753.37 791.94 757.4 791.64C759.32 794.42 761.67 795.14 764.17 797.26C765.83 798.67 766.47 800.46 767.84 801.94C768.51 802.66 769.49 802.81 770.16 803.54C771.39 804.9 774.61 810.57 775.04 812.36C775.37 813.75 775.05 815.19 775.38 816.58C775.71 817.95 776.78 819.01 777.01 820.43C777.39 822.83 776.88 825.29 777.27 827.71C778.77 828.07 780.46 828.81 782 828.29C783.61 827.76 785.17 824.63 786.36 823.42C788.9 820.84 792.27 818.29 795.61 817.12C807.5 812.93 823.92 816.56 832.86 825.53C836.1 828.77 838.38 834.8 840.49 839.02C845.04 836.45 842.83 836.48 844.39 832.76C844.76 831.87 846.27 831.37 846.9 830.72C848.93 828.6 850.97 825.43 853.42 823.79C854.45 823.1 855.96 823.02 857.07 822.34C858.27 821.61 859.33 820.46 860.75 820.12C867.07 818.61 873.23 819.25 879.3 821C882 821.78 886.33 828.03 888.91 827.85C891.35 827.68 888.5 827.44 891.19 826.8C891.42 827.25 891.64 827.71 891.86 828.17ZM249.49 799.9C248.22 800.62 246.96 801.35 245.69 802.08C242.47 800.05 239.95 797.36 236.35 795.83C225.52 791.23 212.76 793.12 203.2 799.87C197.08 804.19 192.13 810.68 190.23 817.92C189.46 820.87 188.37 824.92 190.83 827.11C188.67 827.6 186.51 828.09 184.35 828.58C181.93 826.99 181.05 824.25 179.02 822.16C176.4 819.46 172.72 817.7 169.35 816.21C154.3 809.54 135.49 820.6 132.03 835.93C131.24 836.3 130.45 836.67 129.66 837.03C127.83 837.07 126.01 837.1 124.18 837.14C122.76 836.1 122.54 835.91 120.98 836.39C120.29 833.09 119.04 832.59 117.26 830.22C116.29 828.92 116.01 827.55 114.59 826.33C104.4 817.54 87.08 820.69 82.89 833.85C78.74 832.72 74.73 829.38 72.97 825.39C77.48 825.86 78.34 828.03 80.81 831.58C83.9 826.08 93.57 819.04 99.98 819.04C105.89 819.04 116.14 824.77 120.04 829.11C121.67 830.91 122.63 834.22 123.72 836.37C125.24 836.26 127.9 836.56 129.2 835.66C131.09 834.35 130.91 831.59 131.66 829.71C132.36 827.94 134.48 826.92 135.56 825.4C136.2 824.51 136.41 823.22 137.13 822.4C140.16 818.97 145.18 816.27 149.46 814.64C155.45 812.36 164.07 812.19 170.12 814.64C173.23 815.9 175.91 818.49 178.96 818.58C180.13 823.26 183.85 825.99 188.5 824.97C187.09 820.86 188.29 821.99 188.98 818.55C189.68 815.05 188.11 813.18 191.75 811.28C192.05 810.06 192.36 808.84 192.66 807.62C194.99 805.73 196.61 802.85 198.9 801.08C199.83 800.37 201.21 800.68 201.73 799.21C201.91 798.7 201.66 798.11 201.79 797.58C205.04 796.58 208.24 794.48 211.55 793.69C212.43 793.48 213.27 793.84 214.16 793.69C216.88 793.21 219.62 792.1 222.36 791.67C226.85 790.97 239.69 794.25 243.12 797.33C243.65 797.81 243.77 798.62 244.25 799.15C246 799.4 247.74 799.65 249.49 799.9ZM742.72 884.9C743.34 894.41 735.76 906.3 725.73 907.52C725.44 902.61 722.81 896.4 718.54 893.46C717.68 892.87 716.7 892.78 715.89 892.17C714.71 891.28 714.3 889.93 712.9 889.08C702.05 882.44 686.32 884.43 677.96 894.21C675.81 887.96 676.22 881.62 672.46 875.76C671.45 874.18 669.9 874.13 668.91 872.88C668.46 872.32 668.71 871.41 668.26 870.81C667.57 869.89 666.57 869.74 665.74 869.07C658.43 863.16 648.68 861.17 639.51 864.49C635.8 865.83 632.83 868.24 629.57 870.17C627.27 867.39 629.43 863.23 629.43 859.67C629.45 852.89 627.23 841.22 620.44 838.21C620.72 834.5 615.61 832.44 612.88 830.86C603.24 825.25 590.66 822.55 581.65 830.91C575.68 826.33 560.73 806.77 557.61 799.88C559.15 799.63 560.89 802.62 562.92 803.51C562.22 807.58 566.29 809.78 568.42 812.42C569.04 813.19 569.24 814.76 569.88 815.67C572.55 819.47 576.1 823.54 579.26 826.8C583.2 827.71 585.46 825.28 589.42 824.78C592.82 824.35 596.93 823.89 600.35 824.24C605.71 824.79 609.89 828.07 614.96 829.08C617.72 832.96 622.19 835.25 624.98 839.15C626.23 840.9 626.61 843.01 627.46 844.89C630.76 852.19 630.97 859.04 629.8 866.97C635.09 865.46 640.22 861.98 646.04 861.07C650.45 860.38 653.9 861.71 657.91 863.06C671.3 867.58 676.93 876.75 678.88 890.52C693.24 880.68 713.61 880.91 723.01 897.24C724.51 899.85 726.5 900.47 726.66 903.5C727.58 903.75 728.08 904.37 729.03 904.5C730.88 904.74 733.43 902.41 734.69 901.24C739.74 896.6 740.6 890.74 741.44 884.32C742.44 883.38 741.83 883.23 742.72 884.9ZM288.46 800.48C289.05 803.56 285.04 807.31 283.18 809.69C281.87 811.37 281.33 813.45 280.22 815.1C279.76 815.79 278.42 816.5 277.8 817.22C276.86 818.31 276.54 819.69 275.7 820.77C274.22 822.7 271.78 824.7 269.97 826.44C267.74 828.59 265.54 830.99 263.74 833.21C262.91 834.23 262.91 835.53 261.6 836.39C260.17 837.32 257.97 838.87 257.37 837.41C262.81 831.15 269.2 825.7 274.43 819.17C278.9 813.59 283.69 805.17 288.46 800.48ZM524.87 953.26C523.74 953.11 522.62 952.96 521.49 952.8C524.95 938.13 514.82 920.88 499.88 917.83C494.2 916.68 489 918.06 483.53 919.02C493.87 897.62 477.22 868.76 452.43 872.38C451.99 871.79 451.54 871.21 451.09 870.62C450.71 870.12 450.33 869.62 449.94 869.12C452.05 866.69 454.76 865.06 456.19 862.09C463.7 846.46 455.01 825.96 438.28 821.47C439.03 820.05 439.26 820.25 441.02 820.41C449.22 824.15 456.08 830.88 458.54 839.41C458.93 840.77 459.93 841.83 460.17 843.26C460.51 845.34 460.02 847.55 460 849.62C459.91 856.42 459.22 863.36 453.7 867.89C453.87 868.32 453.91 869.33 454.38 869.63C455.56 870.4 457.46 869.34 458.68 869.46C460.73 869.65 462.53 871.34 464.47 871.82C465.82 872.16 467.09 872 468.41 872.45C471.6 873.54 475.71 876.94 478 879.37C480.01 881.51 480.35 883.23 483.02 884.32C483.54 887.98 484.63 888.9 486.47 891.83C487.45 893.36 486.87 894.73 487.02 896.19C487.12 897.25 488.09 898.09 488.33 899.1C489.38 903.51 489.04 909.76 486.67 913.54C487.74 914.57 488.8 915.59 489.87 916.62C495.04 914.65 501.78 916.61 506.73 918.44C509.97 919.63 512.26 922.98 515.44 924.04C516.53 928.53 520.84 931.26 522.01 935.92C522.54 938.03 523.65 940.83 523.91 942.9C524.31 946.14 523.42 950.04 524.87 953.26ZM381.67 831.85C381.39 831.98 381.11 832.11 380.83 832.23C376.17 832.45 371.52 829.81 366.63 830.08C353.05 830.81 341.29 842.13 339.12 855.33C338.45 859.42 339.47 863.49 339.15 867.49C338.37 868.06 337.59 868.64 336.81 869.22C334.98 866.34 331.67 864.53 328.53 863.39C315.28 858.6 299.73 864.52 292.98 876.92C291.03 880.49 289.71 884.8 289.51 888.89C289.39 891.15 289.84 893.01 289.03 894.92C288.34 895.25 287.65 895.57 286.96 895.9C280.8 879.44 257.87 880.18 245.96 889.26C240.75 893.24 235.75 899.06 236.47 905.92C231.66 905.06 226.74 901.64 224.67 897.17C227.24 899.16 229.81 901.16 232.38 903.16C235.26 900.89 235.04 898.47 236.97 895.76C237.49 895.04 238.44 894.83 239.06 894.19C247.72 885.35 258.24 878.39 271.47 881.31C278.72 882.91 280.7 888.39 287.16 890.26C287.77 888.06 287.76 886.01 288.14 883.87C288.6 881.29 292.73 873.12 294.5 871.11C295.92 869.49 298.44 866.55 300.43 865.54C303.2 864.13 310.78 860.56 313.67 860.15C316.07 859.82 318.6 860.29 320.98 860.31C322.45 860.33 323.87 859.91 325.34 860.3C327.41 860.84 329.11 862.23 330.87 863.06C333.76 864.42 334.61 863.65 336.47 866.7C338.4 863.12 337.2 861.5 336.96 857.81C336.81 855.61 338 851.82 338.94 849.8C340.63 846.19 342.37 842.38 344.72 839.15C345.74 837.74 347.28 837.34 348.63 836.37C350.52 835.01 352.25 832.51 354.31 831.45C360.08 828.45 366.54 828.12 372.87 829.23C375.96 829.77 379.59 829.11 381.67 831.85Z" fill="#924dd1" fill-rule="evenodd" stroke="#924dd1" stroke-width="0.25" stroke-linejoin="round"/>
<path d="M301.05 133.71C323.45 130.26 334.62 160.49 315.52 172.77C312.93 174.43 309.44 175.95 306.34 176.13C298.04 176.6 289.55 173.01 285.56 165.26C279.02 152.55 286.67 135.93 301.05 133.71ZM248.82 194.87C266.21 189.89 272.45 215.19 256.12 219.62C239.37 224.16 233.21 199.35 248.82 194.87ZM704.62 232.49C716.63 230.89 717.85 249.7 706.27 250.54C694.96 251.35 693.78 233.94 704.62 232.49ZM721.79 266.11C724.74 265.91 726.02 266.19 728.34 267.99C731.27 276.16 723.44 280.16 718.55 273.47C718.18 269.74 718.66 268.14 721.79 266.11ZM434.17 437.64C437.49 456.61 434.19 477.2 428.05 495.25C407.84 554.63 345.57 592.76 283.56 584.11C230.5 576.71 184.89 535.81 172.28 483.65C168.99 470.05 166.33 451.51 169.64 437.82C183.61 432.46 205.41 429.53 220.48 427.13C268.19 419.54 316.06 418.39 364.04 424.21C379.6 426.1 395.08 428.76 410.45 431.84C418.11 433.37 427.05 434.44 434.17 437.64ZM796.16 437.82C798.58 451.55 796.86 466.66 793.88 480.16C781.22 537.47 731.29 581.26 672.49 585.15C612.86 589.09 555.53 550.27 536.94 493.53C531.2 476 528.4 456.11 530.96 437.74C536.16 434.66 544.15 434.14 550.13 432.86C564.59 429.78 579.26 427.19 593.91 425.2C644.42 418.35 695.22 418.91 745.54 427.21C756.88 429.09 768.07 431.44 779.33 433.69C784.76 434.77 791.28 435.18 796.16 437.82ZM251 442.82C247.52 446.17 244.53 449.98 242.73 454.48C233.98 463.97 239.78 484.79 245.03 495.02C246.65 498.18 248.26 501.91 250.99 504.12C261.97 519.43 277.57 532.62 293.61 542.41C297.03 544.49 306.12 550.57 309.9 550.18C311.98 549.96 314.37 548.15 316.12 547.09C322.49 545.73 329.46 539.86 334.82 536.11C348.31 526.66 360.48 515.31 369.5 501.45C372.78 496.41 377.04 489.47 377.34 483.48C381.51 469.98 378.79 453.62 368.12 443.69C360.75 431.45 338.14 429.83 326.38 435.47C322.95 437.12 318.4 439.36 316.62 442.66C314.49 445.34 312.36 448.01 310.22 450.69C308.74 450.04 301.84 440.87 298.1 438.28C286.41 430.2 270.66 430.21 258.37 436.86C255.57 438.37 252.69 440.17 251 442.82ZM604.31 442.75C600.47 446.02 597.85 450.12 595.74 454.67C581.58 485.25 610.26 514.83 632.26 532.39C638.78 537.59 645.92 542.11 653.24 546.09C655.79 547.48 659.53 550.17 662.5 550.27C665.24 550.35 668.94 547.59 671.24 546.26C679.99 543.91 694.38 531.89 701.37 525.6C704.17 523.08 708.12 520.27 709.53 516.87C713.83 514.75 717.36 509.08 720.16 505.14C729.11 492.54 735.3 477.54 731.89 461.92C730.89 457.31 728.9 451.06 725.07 448.19C723.64 444.74 720.41 442.14 717.42 439.91C705.84 431.32 690.1 429.34 677.25 436.64C673.56 438.73 669.94 441.62 667.13 444.81C665.36 446.81 664.11 449.36 661.94 450.87C659.87 448.2 657.79 445.53 655.72 442.86C648.64 431.39 628.06 430.29 616.72 434.45C612.38 436.04 606.74 438.77 604.31 442.75Z" fill="#ffffff" fill-rule="evenodd" stroke="#ffffff" stroke-width="0.25" stroke-linejoin="round"/>
<path d="M310.22 450.69C312.36 448.01 314.49 445.34 316.62 442.66C320.61 441.23 323.93 437.88 327.95 436.18C335.72 432.9 344.53 432.46 352.61 435.04C358.38 436.88 362.67 441.68 368.12 443.69C378.79 453.62 381.51 469.98 377.34 483.48C374.06 487.1 372.86 493.46 370.39 497.81C366.51 504.6 361.56 510.76 356.13 516.38C348.6 524.15 340.23 531 331.33 537.13C326.53 540.43 320.09 542.96 316.12 547.09C314.37 548.15 311.98 549.96 309.9 550.18C306.12 550.57 297.03 544.49 293.61 542.41C277.57 532.62 261.97 519.43 250.99 504.12C250.08 501.26 248.2 498.75 246.8 496.05C243.32 489.33 240.43 481.94 239.7 474.35C239.02 467.22 241.62 461.22 242.73 454.48C244.53 449.98 247.52 446.17 251 442.82C256.99 439.93 261.75 435.75 268.5 434.19C283.45 430.74 301.29 437.24 308.15 451.52C309.96 451.85 309.23 451.77 310.22 450.69ZM655.72 442.86C657.79 445.53 659.87 448.2 661.94 450.87C662.78 451.47 661.31 451.54 662.51 451.83C663.17 451.99 668.61 444.97 669.72 443.86C674.33 439.28 680.69 435.83 686.99 434.29C696.05 432.07 707.52 433.95 714.9 439.84C718.18 442.45 721.51 445.97 725.07 448.19C727.05 454.03 729.98 458.87 730.95 465.19C733.19 479.84 726.99 493.05 718.97 504.8C716.21 508.85 711.49 512.6 709.53 516.87C705.02 519.05 700.82 524.23 697.02 527.69C693.22 531.14 688.9 534.18 684.76 537.19C680.61 540.21 674.38 542.38 671.24 546.26C668.94 547.59 665.24 550.35 662.5 550.27C659.53 550.17 655.79 547.48 653.24 546.09C645.92 542.11 638.78 537.59 632.26 532.39C610.26 514.83 581.58 485.25 595.74 454.67C597.85 450.12 600.47 446.02 604.31 442.75C607.78 441.28 610.82 438.47 614.36 436.83C622.12 433.21 631.3 432.27 639.62 434.5C645.76 436.14 650.13 440.64 655.72 442.86ZM345.6 445.12C337.39 445.02 331.02 452.32 332.73 460.46C334.88 470.65 346.61 478.51 356.68 474.18C370.52 468.23 361.26 445.32 345.6 445.12ZM694.37 445.95C685.54 448.57 683.99 458.3 687.89 465.67C692.12 473.65 703.25 477.95 711.33 473.22C715.97 470.5 716.65 463.9 715.76 459.28C713.92 449.71 704.16 443.04 694.37 445.95ZM363.97 481.65C355.18 476.14 346.5 487.61 356.56 492.39C362.32 491.97 367.33 487.48 363.97 481.65ZM709.01 492.17C714.05 492.08 722.21 488.39 717.28 481.96C712.26 475.43 705.62 482.23 705.08 488.04C706.39 489.42 707.7 490.8 709.01 492.17Z" fill="#fc4e8c" fill-rule="evenodd" stroke="#fc4e8c" stroke-width="0.25" stroke-linejoin="round"/>
<path d="M310.22 450.69C309.23 451.77 309.96 451.85 308.15 451.52C301.29 437.24 283.45 430.74 268.5 434.19C261.75 435.75 256.99 439.93 251 442.82C252.69 440.17 255.57 438.37 258.37 436.86C270.66 430.21 286.41 430.2 298.1 438.28C301.84 440.87 308.74 450.04 310.22 450.69ZM368.12 443.69C362.67 441.68 358.38 436.88 352.61 435.04C344.53 432.46 335.72 432.9 327.95 436.18C323.93 437.88 320.61 441.23 316.62 442.66C318.4 439.36 322.95 437.12 326.38 435.47C338.14 429.83 360.75 431.45 368.12 443.69ZM655.72 442.86C650.13 440.64 645.76 436.14 639.62 434.5C631.3 432.27 622.12 433.21 614.36 436.83C610.82 438.47 607.78 441.28 604.31 442.75C606.74 438.77 612.38 436.04 616.72 434.45C628.06 430.29 648.64 431.39 655.72 442.86ZM725.07 448.19C721.51 445.97 718.18 442.45 714.9 439.84C707.52 433.95 696.05 432.07 686.99 434.29C680.69 435.83 674.33 439.28 669.72 443.86C668.61 444.97 663.17 451.99 662.51 451.83C661.31 451.54 662.78 451.47 661.94 450.87C664.11 449.36 665.36 446.81 667.13 444.81C669.94 441.62 673.56 438.73 677.25 436.64C690.1 429.34 705.84 431.32 717.42 439.91C720.41 442.14 723.64 444.74 725.07 448.19ZM345.6 445.12C361.26 445.32 370.52 468.23 356.68 474.18C346.61 478.51 334.88 470.65 332.73 460.46C331.02 452.32 337.39 445.02 345.6 445.12ZM694.37 445.95C704.16 443.04 713.92 449.71 715.76 459.28C716.65 463.9 715.97 470.5 711.33 473.22C703.25 477.95 692.12 473.65 687.89 465.67C683.99 458.3 685.54 448.57 694.37 445.95ZM725.07 448.19C728.9 451.06 730.89 457.31 731.89 461.92C735.3 477.54 729.11 492.54 720.16 505.14C717.36 509.08 713.83 514.75 709.53 516.87C711.49 512.6 716.21 508.85 718.97 504.8C726.99 493.05 733.19 479.84 730.95 465.19C729.98 458.87 727.05 454.03 725.07 448.19ZM242.73 454.48C241.62 461.22 239.02 467.22 239.7 474.35C240.43 481.94 243.32 489.33 246.8 496.05C248.2 498.75 250.08 501.26 250.99 504.12C248.26 501.91 246.65 498.18 245.03 495.02C239.78 484.79 233.98 463.97 242.73 454.48ZM363.97 481.65C367.33 487.48 362.32 491.97 356.56 492.39C346.5 487.61 355.18 476.14 363.97 481.65ZM709.01 492.17C707.7 490.8 706.39 489.42 705.08 488.04C705.62 482.23 712.26 475.43 717.28 481.96C722.21 488.39 714.05 492.08 709.01 492.17ZM377.34 483.48C377.04 489.47 372.78 496.41 369.5 501.45C360.48 515.31 348.31 526.66 334.82 536.11C329.46 539.86 322.49 545.73 316.12 547.09C320.09 542.96 326.53 540.43 331.33 537.13C340.23 531 348.6 524.15 356.13 516.38C361.56 510.76 366.51 504.6 370.39 497.81C372.86 493.46 374.06 487.1 377.34 483.48ZM709.53 516.87C708.12 520.27 704.17 523.08 701.37 525.6C694.38 531.89 679.99 543.91 671.24 546.26C674.38 542.38 680.61 540.21 684.76 537.19C688.9 534.18 693.22 531.14 697.02 527.69C700.82 524.23 705.02 519.05 709.53 516.87ZM774.3 829.7C757.95 824.66 741.52 818.2 726.75 809.5C721.74 806.55 715.29 803.52 711.27 799.31C722.64 792.24 728.22 788.12 742.79 789.81C751.1 790.77 767.2 798.44 770.18 807.09C770.32 807.48 769.96 808.22 770.1 808.48C770.41 809.03 771.43 809.46 771.88 810.07C775.66 815.25 776.01 823.88 774.3 829.7ZM245.69 802.08C240.71 806.69 233.14 809.9 227.02 812.76C215.26 818.27 203.36 823.59 190.83 827.11C188.37 824.92 189.46 820.87 190.23 817.92C192.13 810.68 197.08 804.19 203.2 799.87C212.76 793.12 225.52 791.23 236.35 795.83C239.95 797.36 242.47 800.05 245.69 802.08ZM184.35 828.58C168.19 835.21 146.91 836.53 129.66 837.03C130.45 836.67 131.24 836.3 132.03 835.93C135.49 820.6 154.3 809.54 169.35 816.21C172.72 817.7 176.4 819.46 179.02 822.16C181.05 824.25 181.93 826.99 184.35 828.58ZM837.3 840.65C819.1 839.19 801.18 837.38 783.54 832.49C781.96 823.68 797.33 818.1 804.11 817.51C816.31 816.46 833.19 822.23 836.91 835.36C837.4 837.08 837.01 838.94 837.3 840.65ZM124.18 837.14C112.72 836.98 92.75 839.93 82.89 833.85C87.08 820.69 104.4 817.54 114.59 826.33C116.01 827.55 116.29 828.92 117.26 830.22C119.04 832.59 120.29 833.09 120.98 836.39C122.54 835.91 122.76 836.1 124.18 837.14ZM438.28 821.47C455.01 825.96 463.7 846.46 456.19 862.09C454.76 865.06 452.05 866.69 449.94 869.12C446.18 863.85 444.07 856.63 441.91 850.56C438.69 841.48 435.02 832.13 433.04 822.69C433.41 822.29 433.79 821.9 434.17 821.5C435.54 821.49 436.91 821.48 438.28 821.47ZM887.89 832.97C880.29 841.39 867.31 840.79 856.93 840.89C852.28 840.94 847.46 841.3 842.93 840.14C847.08 835.54 848.67 829.45 854.33 825.52C864.05 818.77 884.45 819.34 887.89 832.97ZM725.73 907.52C721.86 909.41 716.86 908.99 712.66 908.53C701.52 907.32 690.69 903.18 680.49 898.71C643.38 882.44 608.85 861.48 581.65 830.91C590.66 822.55 603.24 825.25 612.88 830.86C615.61 832.44 620.72 834.5 620.44 838.21C627.23 841.22 629.45 852.89 629.43 859.67C629.43 863.23 627.27 867.39 629.57 870.17C632.83 868.24 635.8 865.83 639.51 864.49C648.68 861.17 658.43 863.16 665.74 869.07C666.57 869.74 667.57 869.89 668.26 870.81C668.71 871.41 668.46 872.32 668.91 872.88C669.9 874.13 671.45 874.18 672.46 875.76C676.22 881.62 675.81 887.96 677.96 894.21C686.32 884.43 702.05 882.44 712.9 889.08C714.3 889.93 714.71 891.28 715.89 892.17C716.7 892.78 717.68 892.87 718.54 893.46C722.81 896.4 725.44 902.61 725.73 907.52ZM380.83 832.23C378.96 836.07 374.64 839.29 371.61 842.3C363.52 850.3 349.48 863.1 339.15 867.49C339.47 863.49 338.45 859.42 339.12 855.33C341.29 842.13 353.05 830.81 366.63 830.08C371.52 829.81 376.17 832.45 380.83 832.23ZM336.81 869.22C329.43 876.16 314.88 883.11 305.61 887.72C300.43 890.3 294.7 893.72 289.03 894.92C289.84 893.01 289.39 891.15 289.51 888.89C289.71 884.8 291.03 880.49 292.98 876.92C299.73 864.52 315.28 858.6 328.53 863.39C331.67 864.53 334.98 866.34 336.81 869.22ZM451.09 870.62C451.54 871.21 451.99 871.79 452.43 872.38C477.22 868.76 493.87 897.62 483.53 919.02C489 918.06 494.2 916.68 499.88 917.83C514.82 920.88 524.95 938.13 521.49 952.8C522.62 952.96 523.74 953.11 524.87 953.26C524.92 953.55 524.97 953.83 525.02 954.12C512.88 953.6 507.51 948.53 499.13 940.36C485.13 926.7 473.68 910.54 463.27 894.07C459.32 887.82 452.13 877.78 451.09 870.62ZM286.96 895.9C282.44 898.44 276.96 900.04 271.99 901.62C261.13 905.06 247.74 910.23 236.47 905.92C235.75 899.06 240.75 893.24 245.96 889.26C257.87 880.18 280.8 879.44 286.96 895.9Z" fill="#f896b8" fill-rule="evenodd" stroke="#f896b8" stroke-width="0.25" stroke-linejoin="round"/>
<path d="M519.54 46.41C536.69 46.89 554.43 50.24 571.16 53.81C632.74 66.93 691.25 97.22 730.83 147.13C755.63 178.4 770.85 216.87 776.92 256.12C780.28 277.89 781.31 299.88 780.08 321.86C779.72 328.24 780.4 339.86 777.49 345.3C770.71 339.21 763.92 333.11 757.13 327.02C758.75 327.58 760.36 328.15 761.97 328.71C763.1 301.16 763.19 273.68 757.62 246.56C755.64 236.91 754.12 225.32 749.76 216.47C719.03 117.14 617.23 57.3 518.18 47.99C518.63 47.46 519.09 46.94 519.54 46.41ZM378.48 58.36C378.61 59.91 379.47 59.4 377.92 60.72C348.26 72.1 321.12 87.23 295.35 105.83C288.24 110.97 280.66 116.15 274.38 122.27C274.76 118.05 278.83 114.64 281.79 111.46C287.51 105.31 293.68 99.65 300.1 94.24C303.31 91.54 306.34 88.32 310.45 87.2C310.57 86.45 310.68 85.71 310.8 84.96C318.55 78.86 329.24 75 338.38 71.45C351.31 66.42 364.82 60.92 378.48 58.36Z" fill="#c895f3" fill-rule="evenodd" stroke="#c895f3" stroke-width="0.25" stroke-linejoin="round"/>
</svg>